<?xml version="1.0" standalone="no"?>
<!DOCTYPE svg PUBLIC "-//W3C//DTD SVG 20010904//EN"
 "http://www.w3.org/TR/2001/REC-SVG-20010904/DTD/svg10.dtd">
<svg version="1.0" xmlns="http://www.w3.org/2000/svg"
 width="260.000000pt" height="260.000000pt" viewBox="0 0 260.000000 260.000000"
 preserveAspectRatio="xMidYMid meet">
<metadata>
Created by potrace 1.11, written by Peter Selinger 2001-2013
</metadata>
<g transform="translate(0.000000,260.000000) scale(0.100000,-0.100000)"
fill="#000000" stroke="none">
<path d="M474 2241 c-22 -27 -81 -98 -133 -157 -52 -60 -117 -136 -145 -168
-53 -62 -107 -125 -163 -190 l-33 -38 0 -298 c0 -227 3 -302 13 -312 7 -7 37
-42 67 -78 30 -35 60 -70 65 -76 6 -6 30 -35 55 -64 25 -29 50 -58 55 -64 14
-15 189 -220 245 -286 25 -30 52 -61 60 -70 8 -9 37 -42 63 -73 l49 -57 804 0
805 0 -113 132 c-62 73 -122 144 -133 157 -11 13 -24 29 -30 35 -33 37 -86 99
-125 146 -25 29 -49 58 -55 64 -5 6 -39 45 -75 86 -36 41 -67 77 -70 80 -3 3
-25 30 -50 60 -25 30 -47 57 -51 60 -3 3 -90 104 -193 225 -104 121 -210 245
-236 275 -27 30 -59 69 -71 85 -13 17 -29 35 -35 40 -6 6 -82 93 -169 195 -87
102 -171 201 -189 221 -17 19 -47 54 -66 77 -29 35 -40 42 -71 42 -32 0 -41
-6 -75 -49z"/>
<path d="M2003 1617 c-12 -6 -73 -72 -135 -146 -62 -74 -148 -174 -190 -223
-43 -48 -78 -92 -78 -96 0 -7 132 -169 149 -182 3 -3 30 -34 60 -70 30 -36 59
-69 65 -75 6 -5 28 -31 49 -57 21 -26 43 -53 50 -60 7 -7 50 -58 97 -113 47
-55 90 -105 95 -111 6 -6 42 -48 79 -93 l69 -81 144 0 143 0 0 379 0 379 -217
254 c-271 317 -262 308 -315 308 -24 0 -53 -6 -65 -13z"/>
<path d="M0 682 l0 -372 315 0 c173 0 315 2 315 5 0 5 -23 33 -77 94 -17 20
-58 68 -90 106 -32 39 -65 77 -73 85 -9 8 -36 40 -60 70 -39 48 -81 97 -115
134 -6 6 -46 54 -90 106 -44 52 -90 106 -102 120 l-23 25 0 -373z"/>
</g>
</svg>
